<svg width="24" height="24" viewBox="0 0 24 24" fill="none" xmlns="http://www.w3.org/2000/svg"><rect width="24" height="24" fill="none" rx="0" ry="0"></rect><path fill-rule="evenodd" clip-rule="evenodd" d="M6.5 15C8.98528 15 11 12.9853 11 10.5C11 8.01472 8.98528 6 6.5 6C4.01472 6 2 8.01472 2 10.5C2 12.9853 4.01472 15 6.5 15Z" fill="#f82035"></path><path fill-rule="evenodd" clip-rule="eve nodd" d="M11.2297 14.6803C9.98839 14.6803 8.98207 15.6727 8.98207 16.8968C8.98207 17.0189 8.9923 17.1407 9.01265 17.2612L9.38828 19.4836C9.43996 19.7894 9.16559 20.0517 8.85727 19.9913C5.65135 19.3632 4 17.4091 4 14.2371C4 10.5648 7.01894 7.58778 10.743 7.58778H12.9907V5.17027C12.9907 4.52395 13.522 4 14.1774 4C14.459 4 14.7315 4.09875 14.946 4.2786L21.2713 9.58038C22.1415 10.3097 22.2473 11.5966 21.5077 12.4547C21.4354 12.5385 21.3564 12.6165 21.2713 12.6877L14.946 17.9895C14.4466 18.4081 13.6977 18.3482 13.2732 17.8558C13.0908 17.6442 12.9907 17.3755 12.9907 17.0978V14.6803H11.2297Z" fill="#2d343d"></path></svg>