<svg width="24" height="24" viewBox="0 0 24 24" fill="none" xmlns="http://www.w3.org/2000/svg"><rect width="24" height="24" fill="none" rx="0" ry="0"></rect><path fill-rule="evenodd" clip-rule="evenodd" d="M17.5 15C19.9853 15 22 12.9853 22 10.5C22 8.01472 19.9853 6 17.5 6C15.0147 6 13 8.01472 13 10.5C13 12.9853 15.0147 15 17.5 15Z" fill="#f82035"></path><path fill-rule="evenodd" clip-rule="eve nodd" d="M12.7703 14.6803C14.0116 14.6803 15.0179 15.6727 15.0179 16.8968C15.0179 17.0189 15.0077 17.1407 14.9873 17.2612L14.6117 19.4836C14.56 19.7894 14.8344 20.0517 15.1427 19.9913C18.3487 19.3632 20 17.4091 20 14.2371C20 10.5648 16.9811 7.58778 13.257 7.58778H11.0093V5.17027C11.0093 4.52395 10.478 4 9.82257 4C9.54096 4 9.26853 4.09875 9.05396 4.2786L2.72865 9.58038C1.85848 10.3097 1.75267 11.5966 2.49232 12.4547C2.56459 12.5385 2.64363 12.6165 2.72865 12.6877L9.05396 17.9895C9.55336 18.4081 10.3023 18.3482 10.7268 17.8558C10.9092 17.6442 11.0093 17.3755 11.0093 17.0978V14.6803H12.7703Z" fill="#2d343d"></path></svg>