<svg width="24" height="24" viewBox="0 0 24 24" fill="none" xmlns="http://www.w3.org/2000/svg"><rect width="24" height="24" fill="none" rx="0" ry="0"></rect><path fill-rule="evenodd" clip-rule="evenodd" d="M5 10C4.44772 10 4 10.4477 4 11V13C4 13.5523 4.44772 14 5 14H13.9C14.2314 14 14.5 13.7314 14.5 13.4C14.5 13.0688 14.2317 12.8003 13.9005 12.8C13.9004 12.8 13.9002 12.8 13.9 12.8H13.5L5.7 12.8C5.42386 12.8 5.2 12.5761 5.2 12.3V11.7C5.2 11.4239 5.42386 11.2 5.7 11.2H7V11.1986H7.40072C7.73169 11.1986 8 10.9303 8 10.5993C8 10.2683 7.73169 10 7.40072 10H5ZM10.5 11.2H18.3C18.5761 11.2 18.8 11.4239 18.8 11.7V12.3C18.8 12.5761 18.5761 12.8 18.3 12.8L17 12.8H16.6C16.5998 12.8 16.5996 12.8 16.5995 12.8C16.2683 12.8003 16 13.0688 16 13.4C16 13.7314 16.2686 14 16.6 14H19C19.5523 14 20 13.5523 20 13V11C20 10.4477 19.5523 10 19 10H10.0993C9.76831 10 9.5 10.2683 9.5 10.5993C9.5 10.9303 9.76831 11.1986 10.0993 11.1986H10.5V11.2Z" fill="#ffffff"></path><path fill-rule="evenodd" clip-rule="evenodd" d="M5 4C4.44772 4 4 4.44772 4 5V7C4 7.55228 4.44772 8 5 8H19C19.5523 8 20 7.55228 20 7V5C20 4.44772 19.5523 4 19 4H17.0993C16.7683 4 16.5 4.26831 16.5 4.59928C16.5 4.93025 16.7683 5.19856 17.0993 5.19856H17.5V5.2H18.3C18.5761 5.2 18.8 5.42386 18.8 5.7V6.3C18.8 6.57614 18.5761 6.8 18.3 6.8H5.7C5.42386 6.8 5.2 6.57614 5.2 6.3V5.7C5.2 5.42386 5.42386 5.2 5.7 5.2H14V5.19856H14.4007C14.7317 5.19856 15 4.93025 15 4.59928C15 4.26831 14.7317 4 14.4007 4H5ZM4 19C4 19.5523 4.44772 20 5 20H7.40072C7.73169 20 8 19.7317 8 19.4007C8 19.0697 7.73169 18.8014 7.40072 18.8014H7V18.8H5.7C5.42386 18.8 5.2 18.5761 5.2 18.3V17.7C5.2 17.4239 5.42386 17.2 5.7 17.2H18.3C18.5761 17.2 18.8 17.4239 18.8 17.7V18.3C18.8 18.5761 18.5761 18.8 18.3 18.8H17V18.8014H16.5993C16.2683 18.8014 16 19.0697 16 19.4007C16 19.7317 16.2683 20 16.5993 20H19C19.5523 20 20 19.5523 20 19V17C20 16.4477 19.5523 16 19 16H5C4.44772 16 4 16.4477 4 17V19ZM14 18.8H10.5V18.8014H10.0993C9.76831 18.8014 9.5 19.0697 9.5 19.4007C9.5 19.7317 9.76831 20 10.0993 20H14.4007C14.7317 20 15 19.7317 15 19.4007C15 19.0697 14.7317 18.8014 14.4007 18.8014H14V18.8Z" fill="#2d343d"></path></svg>