<svg width="24" height="24" viewBox="0 0 24 24" fill="none" xmlns="http://www.w3.org/2000/svg"><rect width="24" height="24" fill="none" rx="0" ry="0"></rect><path fill-rule="evenodd" clip-rule="evenodd" d="M19.9675 3.90466C18.7959 2.73309 16.8964 2.73309 15.7249 3.90466L14.1229 5.50664C13.8897 5.73987 13.8897 6.11801 14.1229 6.35123C14.3431 6.57141 14.6926 6.58382 14.9273 6.38798L16.4984 4.81691C17.2441 4.07119 18.4531 4.07119 19.1989 4.81691C19.9446 5.56264 19.9446 6.7717 19.1989 7.51742L19.0116 7.70473L19.0131 7.70616L16.6729 10.0459C16.4403 10.2785 16.4403 10.6555 16.6729 10.8881C16.9054 11.1207 17.2825 11.1207 17.515 10.8881L20.1117 8.29147C21.2833 7.11989 21.2833 5.2204 20.1117 4.04882L19.9675 3.90466Z" fill="#f82035"></path><path fill-rule="evenodd" clip-rule="evenodd" d="M3.89447 4.04878C2.7229 5.22036 2.7229 7.11985 3.89447 8.29143L7.61037 12.0073L3.88887 15.7288C2.7173 16.9004 2.7173 18.7999 3.88887 19.9715L4.03304 20.1156C5.20461 21.2872 7.1041 21.2872 8.27568 20.1156L11.9972 16.3941L15.7187 20.1156C16.8902 21.2872 18.7897 21.2872 19.9613 20.1156L20.1055 19.9715C21.277 18.7999 21.277 16.9004 20.1055 15.7288L15.7126 11.336C15.4806 11.104 15.1047 11.103 14.8716 11.3339C14.6368 11.5664 14.6359 11.9455 14.8695 12.1791L16.4228 13.7324L19.1932 16.5029C19.9389 17.2486 19.9389 18.4576 19.1932 19.2034C18.4475 19.9491 17.2384 19.9491 16.4927 19.2034L11.998 14.7087L7.50331 19.2034C6.75758 19.9491 5.54853 19.9491 4.8028 19.2034C4.05708 18.4576 4.05708 17.2486 4.8028 16.5029L9.2975 12.0082L4.80672 7.51738C4.061 6.77165 4.061 5.56259 4.80672 4.81687C5.55245 4.07114 6.76151 4.07114 7.50723 4.81687L10.7874 8.09704L11.8327 9.14231C12.0652 9.3748 12.442 9.37519 12.6749 9.14319C12.9086 8.91051 12.909 8.53234 12.6758 8.29917L8.28128 3.90462C7.1097 2.73305 5.21021 2.73305 4.03863 3.90462L3.89447 4.04878Z" fill="#ffffff"></path></svg>