<svg enable-background="new 0 0 538 127" viewBox="0 0 538 127" xmlns="http://www.w3.org/2000/svg"><path d="m168.4 42.6h23.8v35.8c.1 8.2.4 13.4.9 15.6.6 3 2.6 5 5.9 6s10.1 1.4 20.2 1.4c8.2 0 13.9-.2 17.1-.7s5.4-1.4 6.8-2.8c.9-1 1.5-2.2 1.9-3.6s.6-3.8.8-7.3.3-6.4.3-8.6v-35.8h23.8v35.8c-.3 12.5-.7 20.6-1.2 24.4-1 6.5-4.1 11.3-9.4 14.4-3 1.8-7.3 2.9-12.7 3.5-5.5.6-14.5.9-27 .9-9.4 0-16.7-.2-21.8-.5s-9.5-1-13.3-1.8c-8.3-2-13.2-7-14.6-15.1-.5-3.1-.9-5.9-1-8.4s-.2-8.3-.3-17.5v-35.7z"/><path d="m280.3 120.6v-78h56.3c10 0 16.5.1 19.6.2 3.1.2 6.3.6 9.7 1.3 7.8 1.6 12.9 6 15.3 13.3.9 2.7 1.5 5.7 1.8 8.8s.5 7.9.5 14.3c0 7-.2 12.2-.5 15.8-.4 3.6-1 6.8-2 9.8-2.3 6.9-7.1 11.1-14.3 12.7-3.4.8-7 1.3-10.9 1.5-3.8.2-10.1.4-18.9.4h-56.6zm23.4-19.9h33.1c6.1 0 10.6-.2 13.5-.6s4.9-1.1 6.1-2.1c1.3-1.1 2.2-2.9 2.7-5.3s.8-6 .8-10.9-.2-8.5-.7-10.9-1.3-4.3-2.4-5.6c-1.3-1.4-3.2-2.3-5.6-2.7-2.5-.4-7.3-.6-14.6-.6h-32.8v38.7z"/><path d="m392.7 42.6h25v78h-25z"/><path d="m480.5 41.5c16.8 0 28.4.4 34.7 1.3 9.1 1.2 14.7 5.5 16.7 13 1.4 5.1 2.1 13.7 2.1 25.9s-.7 20.8-2.1 25.9c-2.1 7.4-7.6 11.7-16.7 13-6.3.8-17.8 1.3-34.5 1.3-17 0-28.6-.4-35-1.3-9.1-1.2-14.7-5.5-16.7-13-1.4-5.1-2.1-13.9-2.1-26.4 0-11.9.7-20.4 2.1-25.4 2.1-7.4 7.6-11.7 16.7-13 6.4-.9 18-1.3 34.8-1.3zm.1 20.3c-12.6 0-20.2.3-22.7 1-2.9.8-4.9 2.5-5.8 5.1s-1.4 7.9-1.4 15.8c0 4.8.2 8.2.7 10.3 1 4 3.8 6.2 8.6 6.8 3.5.5 10.4.7 20.6.7 9.6 0 15.9-.2 19.1-.5s5.5-1.1 7-2.3c1.4-1.1 2.3-2.6 2.8-4.7s.7-5.5.7-10.2c0-5.6-.2-9.7-.6-12.3s-1.1-4.6-2.1-5.9c-1.3-1.7-3.3-2.7-6.2-3.1-2.7-.5-9.7-.7-20.7-.7z"/><path d="m168.4 35.4v-20h14.4c3.1 0 4.9 0 5.4.1 1.3.1 2.3.3 2.9.7s1 .9 1.3 1.6.4 1.6.4 2.8c0 1.4-.2 2.5-.6 3.2s-1.1 1.2-2.1 1.4c.9.2 1.5.4 2 .7 1 .7 1.5 2 1.5 4.1 0 1.6-.3 2.8-.8 3.6-.3.5-.8.9-1.4 1.2-.6.2-1.4.4-2.5.5-.7 0-2.7.1-6.1.1zm5.8-12.1h8.6c1.9 0 3-.1 3.4-.2.5-.2.7-.7.7-1.4 0-.8-.3-1.3-.9-1.4-.2-.1-1.3-.1-3.2-.1h-8.6zm0 7.3h8.6 3.2s.6-.1.8-.2c.5-.2.8-.7.8-1.5s-.3-1.3-.9-1.5c-.2-.1-1.5-.1-3.9-.1h-8.6z"/><path d="m195.6 35.4v-20h14.7c3.5 0 5.5 0 6.2.1s1.3.3 2 .7c.8.5 1.3 1.1 1.6 1.9s.4 2.1.4 3.8c0 1.5-.1 2.5-.3 3.2s-.5 1.2-1 1.6-1.3.7-2.4.9c1.3.1 2.2.5 2.8 1.1.3.4.5.8.6 1.4.1.5.1 1.7.1 3.4v1.9h-6v-1.1c0-1.1 0-1.9-.1-2.4s-.2-.8-.5-1.1c-.2-.2-.5-.4-.9-.4-.4-.1-1.2-.1-2.5-.1h-8.6v5.1zm6.1-10.1h8.6c1.5 0 2.4-.1 2.7-.1s.5-.1.7-.2c.3-.2.4-.4.6-.7.1-.3.2-.8.2-1.5s-.1-1.1-.2-1.5c-.1-.3-.3-.6-.6-.7-.2-.1-.5-.2-.8-.2s-1.1 0-2.6 0h-8.5v4.9z"/><path d="m222.6 15.4h6.4v20h-6.4z"/><path d="m253.5 35.4-1.7-3.4h-13.2l-1.7 3.4h-6.9l10.6-20h9.4l10.4 20zm-3.9-7.8-3.8-7.6h-1.2l-3.8 7.6z"/><path d="m261.3 15.4h10.7l10.5 14.9h.6l-.1-14.9h6.2v20h-10.6l-10.6-14.9h-.7l.1 14.9h-6.2v-20z"/><path d="m299.3 35.4v-20h14.7c3.5 0 5.5 0 6.2.1s1.3.3 2 .7c.8.5 1.3 1.1 1.6 1.9s.4 2.1.4 3.8c0 1.5-.1 2.5-.3 3.2s-.5 1.2-1 1.6-1.3.7-2.4.9c1.3.1 2.2.5 2.8 1.1.3.4.5.8.6 1.4s.1 1.7.1 3.4v1.9h-6v-1.1c0-1.1 0-1.9-.1-2.4s-.2-.8-.5-1.1c-.2-.2-.5-.4-.9-.4-.4-.1-1.2-.1-2.5-.1h-8.6v5.1zm6.1-10.1h8.6c1.5 0 2.4-.1 2.7-.1s.5-.1.7-.2c.3-.2.4-.4.6-.7.1-.3.2-.8.2-1.5s-.1-1.1-.2-1.5c-.1-.3-.3-.6-.6-.7-.2-.1-.5-.2-.8-.2s-1.1 0-2.6 0h-8.5v4.9z"/><path d="m326.3 15.4h22.1v4.7h-16.1v2.9h15.3v4.4h-15.3v3.2h16.2v4.8h-22.2z"/><path d="m350.4 15.4h6.4v20h-6.4z"/><path d="m359.6 15.4h11l5.9 13 5.9-13h11v20h-6l.1-15h-1l-7.5 15h-5l-7.5-15h-1.1l.1 15h-6v-20z"/><path d="m396.3 15.4h22.1v4.7h-16.1v2.9h15.3v4.4h-15.3v3.2h16.2v4.8h-22.2z"/><path d="m420.4 35.4v-20h14.7c3.5 0 5.5 0 6.2.1s1.3.3 2 .7c.8.5 1.3 1.1 1.6 1.9s.4 2.1.4 3.8c0 1.5-.1 2.5-.3 3.2s-.5 1.2-1 1.6-1.3.7-2.4.9c1.3.1 2.2.5 2.8 1.1.3.4.5.8.6 1.4s.1 1.7.1 3.4v1.9h-6v-1.1c0-1.1 0-1.9-.1-2.4s-.2-.8-.5-1.1c-.2-.2-.5-.4-.9-.4-.4-.1-1.2-.1-2.5-.1h-8.6v5.1zm6.1-10.1h8.6c1.5 0 2.4-.1 2.7-.1s.5-.1.7-.2c.3-.2.4-.4.6-.7.1-.3.2-.8.2-1.5s-.1-1.1-.2-1.5c-.1-.3-.3-.6-.6-.7-.2-.1-.5-.2-.8-.2s-1.1 0-2.6 0h-8.5v4.9z"/><path d="m454 7h12v28h-12z"/><path d="m468 14h12v21h-12z"/><path d="m482 19h12v16h-12z"/><path d="m496 4h12v31h-12z"/><path d="m114.1 10.2h-52.4l-58.7 110.7h38.5l9.5-18.7 12-24.3 21.3-41.9h6.8l21.3 41.9h-41.6l-11.7 24.3h65.1l9.5 18.7h38.3z"/></svg>