<svg fill="none" height="24" viewBox="0 0 24 24" width="24" xmlns="http://www.w3.org/2000/svg"><path d="m0 0h24v24h-24z" fill="none"/><path clip-rule="evenodd" d="m16.8931 14.0627c.7033-1.1908 1.1069-2.5796 1.1069-4.0627 0-4.41828-3.5817-8-8-8-4.41828 0-8 3.58172-8 8 0 4.4183 3.58172 8 8 8 1.4831 0 2.8719-.4036 4.0626-1.1068l4.8125 4.8132c.3905.3906 1.0237.3906 1.4143.0001l1.4163-1.4163c.3905-.3905.3905-1.0236 0-1.4142zm-6.8931.9373c2.7614 0 5-2.2386 5-5 0-2.76142-2.2386-5-5-5-2.76142 0-5 2.23858-5 5 0 2.7614 2.23858 5 5 5z" fill="#2d343d" fill-rule="evenodd"/></svg>